<svg width="139" height="40" viewBox="0 0 139 40" fill="none" xmlns="http://www.w3.org/2000/svg">
<path opacity="0.3" d="M34.6419 9.99997L25.9801 14.9999L17.3237 19.9999L8.66186 24.9999L0 29.9999V9.99997L17.3237 0L34.6419 9.99997Z" fill="#42D3FF"/>
<path opacity="0.6" d="M34.6419 30L17.3237 39.9999L0 30L8.66186 25L17.3237 20L25.9801 25L34.6419 30Z" fill="#42D3FF"/>
<path d="M34.6423 10.0005V30.0004L25.9805 25.0004L17.3241 20.0004L25.9805 15.0005L34.6423 10.0005Z" fill="#42D3FF"/>
<path d="M59.909 27.1996C57.9424 27.1996 56.3411 26.5961 55.1049 25.389C53.8687 24.1819 53.252 22.5744 53.2546 20.5664V20.2201C53.233 18.9711 53.5003 17.7341 54.0357 16.6055C54.5167 15.5882 55.2861 14.7348 56.2482 14.1512C57.2366 13.5676 58.3675 13.2694 59.5152 13.2895C61.3496 13.2895 62.7937 13.868 63.8475 15.0248C64.9013 16.1817 65.4299 17.8223 65.4334 19.9465V21.4096H56.8905C57.0068 22.2863 57.3561 22.9911 57.9385 23.5242C58.5209 24.0572 59.2584 24.3216 60.1509 24.3171C61.5315 24.3171 62.6105 23.8171 63.3876 22.8171L65.148 24.789C64.5912 25.5649 63.8381 26.1788 62.9659 26.5679C62.0058 27.0006 60.962 27.2163 59.909 27.1996ZM59.5007 16.1786C59.1773 16.1672 58.8554 16.2258 58.5568 16.3504C58.2582 16.4749 57.9901 16.6625 57.7707 16.9002C57.3301 17.3813 57.0473 18.0703 56.9221 18.9672H61.9047V18.6804C61.8888 17.8874 61.6743 17.2707 61.261 16.8301C60.8478 16.3896 60.261 16.1724 59.5007 16.1786Z" fill="white"/>
<path d="M71.5526 17.5416L73.8099 13.5371H77.6426L73.8245 20.1082L77.7986 26.9489H73.9553L71.5619 22.7343L69.1829 26.9489H65.3264L69.3059 20.1056L65.5075 13.5371H69.3402L71.5526 17.5416Z" fill="white"/>
<path d="M90.4206 20.3684C90.4206 22.4354 89.9515 24.0905 89.0131 25.3337C88.0748 26.5769 86.8082 27.199 85.2135 27.1999C83.8592 27.1999 82.764 26.7285 81.9279 25.7857V32.1031H78.3463V13.5369H81.6675L81.7918 14.8586C82.6605 13.8171 83.7927 13.2964 85.1884 13.2964C86.8413 13.2964 88.1267 13.9079 89.0448 15.1308C89.9629 16.3537 90.4215 18.0397 90.4206 20.1887V20.3684ZM86.8377 20.1041C86.8377 18.8565 86.6175 17.8934 86.1769 17.215C85.7364 16.5366 85.0941 16.1978 84.25 16.1987C83.1249 16.1987 82.3517 16.6287 81.9305 17.4886V22.9839C82.371 23.8694 83.1521 24.3099 84.2737 24.3055C85.983 24.3055 86.8377 22.9064 86.8377 20.108V20.1041Z" fill="white"/>
<path d="M95.4073 26.949H91.8071V7.90967H95.4033L95.4073 26.949Z" fill="white"/>
<path d="M96.783 20.1215C96.7603 18.8917 97.0232 17.6734 97.5508 16.5624C98.0327 15.5549 98.8032 14.7135 99.7646 14.1451C100.727 13.5759 101.844 13.2909 103.117 13.29C104.928 13.29 106.406 13.8438 107.55 14.9513C108.695 16.0588 109.333 17.5628 109.465 19.4633L109.49 20.3805C109.49 22.4396 108.918 24.0908 107.772 25.334C106.627 26.5772 105.085 27.1992 103.147 27.2001C101.213 27.2001 99.6707 26.5803 98.5209 25.3406C97.3711 24.1009 96.7948 22.4145 96.7922 20.2814L96.783 20.1215ZM100.366 20.3753C100.366 21.6511 100.606 22.6255 101.085 23.2987C101.564 23.9718 102.25 24.3093 103.143 24.3111C104.01 24.3111 104.687 23.978 105.175 23.3119C105.663 22.6458 105.907 21.5801 105.907 20.1149C105.907 18.8646 105.663 17.8955 105.175 17.2073C104.687 16.5192 104.001 16.176 103.117 16.1778C102.242 16.1778 101.564 16.5192 101.085 17.202C100.606 17.8849 100.366 18.9426 100.366 20.3753Z" fill="white"/>
<path d="M118.219 16.9047C117.792 16.8431 117.362 16.81 116.931 16.8056C115.575 16.8056 114.686 17.2642 114.265 18.1814V26.949H110.682V13.5345H114.067L114.166 15.135C114.885 13.9015 115.881 13.2847 117.154 13.2847C117.532 13.2823 117.908 13.3366 118.269 13.446L118.219 16.9047Z" fill="white"/>
<path d="M124.865 27.1996C122.899 27.1996 121.297 26.5961 120.061 25.389C118.825 24.1819 118.208 22.5744 118.211 20.5664V20.2201C118.189 18.9711 118.457 17.7341 118.992 16.6055C119.473 15.5882 120.242 14.7348 121.205 14.1512C122.193 13.5676 123.324 13.2694 124.472 13.2895C126.306 13.2895 127.75 13.868 128.804 15.0248C129.858 16.1817 130.386 17.8223 130.39 19.9465V21.4096H121.848C121.964 22.2863 122.314 22.9911 122.896 23.5242C123.479 24.0572 124.216 24.3216 125.109 24.3171C126.489 24.3171 127.568 23.8171 128.345 22.8171L130.106 24.789C129.549 25.5649 128.796 26.1788 127.924 26.5679C126.963 27.0008 125.919 27.2165 124.865 27.1996ZM124.457 16.1786C124.134 16.1685 123.813 16.2281 123.516 16.3533C123.218 16.4785 122.951 16.6664 122.732 16.9042C122.292 17.3852 122.008 18.0742 121.882 18.9712H126.866V18.6844C126.85 17.8914 126.636 17.2747 126.223 16.8341C125.81 16.3936 125.221 16.1751 124.457 16.1786Z" fill="white"/>
<path d="M138.938 16.9047C138.511 16.8431 138.08 16.81 137.648 16.8056C136.292 16.8056 135.403 17.2642 134.982 18.1814V26.949H131.399V13.5345H134.784L134.883 15.135C135.602 13.9015 136.598 13.2848 137.871 13.2848C138.249 13.2822 138.625 13.3365 138.987 13.446L138.938 16.9047Z" fill="white"/>
</svg>
